# xmcd CD database file
#
# Track frame offsets:
#	182
#	13267
#	30640
#	41952
#	70672
#	82557
#
# Disc length: 2019 seconds
#
# Revision: 0
# Processed by: cddbd v1.5.1PL0 Copyright (c) Steve Scherf et al.
# Submitted via: CDex 1.51
#
DISCID=4007e106
DTITLE=Art Ensemble of Chicago - Go Home
DYEAR=1900
DGENRE=Jazz
TTITLE0=Hello Chi (I)
TTITLE1=From Bengali
TTITLE2=From St-Louis
TTITLE3=Fly wyth honey hee
TTITLE4=Hello Chi (II)
TTITLE5=Dance
EXTD=
EXTT0=
EXTT1=
EXTT2=
EXTT3=
EXTT4=
EXTT5=
PLAYORDER=
